<svg width="50" height="50" viewBox="0 0 50 50" fill="none" xmlns="http://www.w3.org/2000/svg">
<path d="M28 4L38 14V36H12V4H28Z" fill="#FBB945"/>
<path d="M4 20H42C44.2091 20 46 21.7909 46 24V42H8C5.79086 42 4 40.2091 4 38V20Z" fill="#985184"/>
<path d="M28 4L28 14L38 14L28 4Z" fill="#985184"/>
<path d="M12 32C12 34.2091 13.7909 36 16 36H38V20H12V32Z" fill="#FC868B"/>
<path d="M15 24C15.5523 24 16 24.4477 16 25C16 25.5523 15.5523 26 15 26C14.4477 26 14 25.5523 14 25C14 24.4477 14.4477 24 15 24Z" fill="white"/>
<path d="M12 24C12.5523 24 13 24.4477 13 25C13 25.5523 12.5523 26 12 26C11.4477 26 11 25.5523 11 25C11 24.4477 11.4477 24 12 24Z" fill="white"/>
<path d="M9 24C9.55228 24 10 24.4477 10 25C10 25.5523 9.55228 26 9 26C8.44772 26 8 25.5523 8 25C8 24.4477 8.44772 24 9 24Z" fill="white"/>
<path d="M26 42L26 45L24 45L24 42L26 42Z" fill="#985184"/>
<path d="M5 44H45C45.5523 44 46 44.4477 46 45C46 45.5523 45.5523 46 45 46H5C4.44772 46 4 45.5523 4 45C4 44.4477 4.44772 44 5 44Z" fill="#985184"/>
<circle cx="25" cy="45" r="2" fill="#FC868B"/>
</svg>
